<?xml version="1.0" encoding="UTF-8"?>
<svg xmlns="http://www.w3.org/2000/svg" xmlns:xlink="http://www.w3.org/1999/xlink" viewBox="0 0 547.4 342.67">
  <defs>
    <style>
      .cls-1 {
        fill: #1f2251;
      }

      .cls-1, .cls-2, .cls-3, .cls-4, .cls-5, .cls-6, .cls-7, .cls-8, .cls-9, .cls-10, .cls-11, .cls-12, .cls-13, .cls-14, .cls-15, .cls-16, .cls-17, .cls-18, .cls-19 {
        stroke-width: 0px;
      }

      .cls-20 {
        stroke-miterlimit: 10;
      }

      .cls-20, .cls-21, .cls-8, .cls-22, .cls-23, .cls-24, .cls-25, .cls-26, .cls-27 {
        fill: none;
      }

      .cls-20, .cls-23, .cls-27 {
        stroke: #647bf4;
      }

      .cls-20, .cls-26 {
        stroke-width: .79px;
      }

      .cls-21 {
        stroke: #c85e8b;
        stroke-miterlimit: 9;
      }

      .cls-21, .cls-22 {
        stroke-width: .53px;
      }

      .cls-21, .cls-22, .cls-23, .cls-24, .cls-25, .cls-26, .cls-27 {
        stroke-linecap: round;
      }

      .cls-28 {
        isolation: isolate;
      }

      .cls-3 {
        fill: #99a3ca;
      }

      .cls-4 {
        fill: #647bf4;
      }

      .cls-5 {
        fill: #f0c9cf;
      }

      .cls-6 {
        fill: #7988b8;
      }

      .cls-7 {
        fill: #445ec7;
      }

      .cls-9 {
        fill: #4257b2;
      }

      .cls-22, .cls-23, .cls-24, .cls-25, .cls-26, .cls-27 {
        stroke-linejoin: round;
      }

      .cls-22, .cls-26 {
        stroke: #1f2251;
      }

      .cls-24 {
        stroke: #97a2d4;
        stroke-width: 2.1px;
      }

      .cls-10 {
        fill: #2a3551;
      }

      .cls-11, .cls-16 {
        fill: #fff;
      }

      .cls-12 {
        fill: #161937;
      }

      .cls-25 {
        stroke: #ebaf65;
      }

      .cls-29 {
        clip-path: url(#clippath);
      }

      .cls-13 {
        fill: #ebaf65;
      }

      .cls-14 {
        fill: #eab7c0;
      }

      .cls-15 {
        fill: #d683a7;
      }

      .cls-16 {
        mix-blend-mode: overlay;
      }

      .cls-16, .cls-27 {
        opacity: .25;
      }

      .cls-17 {
        fill: #e6e9fc;
      }

      .cls-18 {
        fill: #292f69;
      }

      .cls-19 {
        fill: #364380;
      }
    </style>
    <clipPath id="clippath">
      <path class="cls-8" d="m292.95,110.68l11.81-11.94-12.41-24.98c-3.97-7.97-11.41-13.6-20.1-15.27-.54-.11-1.08-.19-1.63-.26l-2.2-.29h-17.63l-2.49-.67-3.48,1.6-7.16,3.3c-11.57,5.32-18.39,17.47-16.92,30.12l3.36,28.83,12.39-7.26-1.65,45.03c-.07,1.97,1.66,3.53,3.61,3.25l57.42-8.45c1.55-.23,2.63-1.66,2.42-3.2l-5.35-39.78Z"/>
    </clipPath>
  </defs>
  <g class="cls-28">
    <g id="_Слой_2" data-name="Слой 2">
      <g id="OBJECTS">
        <g>
          <path class="cls-11" d="m46.41,341.62s0-14.8-6.97-36.14c-6.97-21.33-42.91-25.63-39.16-56.2,20.12,7.24,35.94,37.09,39.43,46.17-11.8-45.9-3.49-78.35-3.49-78.35,0,0,16.09,34.33,10.19,78.59,21.19-53.11,37.89-60.35,37.89-60.35,0,0-4.36,32.19-15.89,49.08-11.53,16.9-20.38,16.63-20.38,16.63,0,0,.27,27.77,5.36,40.57h-6.97Z"/>
          <path class="cls-11" d="m509.1,341.62s0-14.8-6.97-36.14c-6.97-21.33-42.91-25.63-39.16-56.2,20.12,7.24,35.94,37.09,39.43,46.17-11.8-45.9-3.49-78.35-3.49-78.35,0,0,16.09,34.33,10.19,78.59,21.19-53.11,37.89-60.35,37.89-60.35,0,0-4.36,32.19-15.89,49.08-11.53,16.9-20.38,16.63-20.38,16.63,0,0,.27,27.77,5.36,40.57h-6.97Z"/>
          <g>
            <g>
              <g>
                <polyline class="cls-5" points="154.17 310.44 156.34 327.07 151.51 335.39 139.84 330.83 136.2 314.6"/>
                <path class="cls-1" d="m181.25,338.73l-25.45-14.74-4.83,6.84h-11.13l-1.21,10.33h41.96c1.33,0,1.8-1.76.65-2.43Z"/>
                <polyline class="cls-5" points="63.65 310.44 60.43 327.07 65.25 335.39 76.92 330.83 81.62 314.6"/>
                <path class="cls-5" d="m166.87,148.31l-19.07,25.09c-.66.87-1.06,1.91-1.13,3l-1.63,22.33-6.84-46.94,9.65-16.16-.97-3.21-3.65-12.1,18.8-7.1,1.14,3.38,5.97,17.7c1.61,4.76.75,10-2.29,14Z"/>
                <polygon class="cls-15" points="163.2 116.6 146.89 132.43 143.25 120.32 162.05 113.22 163.2 116.6"/>
                <polygon class="cls-3" points="157.65 314.74 134.59 318.49 116.47 240.66 111.97 221.35 111.86 220.87 82.47 320.45 59.35 314.11 80.84 175.74 82.47 165.25 141.02 164.38 141.65 170.1 157.65 314.74"/>
                <polygon class="cls-6" points="141.65 170.1 80.84 175.74 81.71 170.1 82.47 165.25 141.02 164.38 141.54 169.12 141.65 170.1"/>
                <path class="cls-1" d="m141.54,169.12c-12.71,1.84-50.83,1.17-59.84.98l.76-4.84,58.55-.87.53,4.74Z"/>
                <path class="cls-4" d="m165.03,112.1l-13.55,8.07-1.74,1.03-4.09,2.44v.11l-.08,1.74-.62,14.21-.08,1.74-.62,14.21-.07,1.74-.2,4.46s2.42,2.68,1.74,4.96c-.17.56-4.19.99-10.19,1.28-.57.03-1.14.05-1.74.08-4.15.17-9.07.28-14.21.34-.58,0-1.16.01-1.74.01-4.73.03-9.6,0-14.21-.08-.59-.01-1.17-.03-1.74-.04-5.4-.13-10.36-.33-14.21-.64-.61-.04-1.2-.09-1.74-.15-3.87-.37-6.23-.85-6.18-1.47.27-3.21,2.28-5.37,2.28-5.37v-3.38s.02-1.74.02-1.74l.05-14.21v-1.74s.06-14.21.06-14.21v-.9l-1.44-.84-9.02-5.25-1.74-1.02-11.26-6.57.62-1.38.79-1.74,6.39-14.22.79-1.73,2.68-5.97.56-1.24c.37-.81.76-1.61,1.19-2.37.9-1.65,1.94-3.19,3.1-4.64.47-.6.97-1.19,1.48-1.74,2.73-3,6.01-5.47,9.64-7.28.57-.29,1.16-.56,1.74-.81,2.51-1.08,5.17-1.85,7.93-2.28l4.18-.65,2.1-.33,1.74-.27h.06s14.15,1.17,14.15,1.17l1.74.15,4.29.36,3.61.5c.22.03.45.06.67.11,1.93.3,3.82.79,5.64,1.42.59.2,1.17.42,1.74.66,4.08,1.67,7.77,4.14,10.86,7.26.56.56,1.1,1.15,1.62,1.74.61.7,1.19,1.44,1.73,2.2.63.86,1.21,1.76,1.74,2.69.59,1,1.12,2.04,1.61,3.11l2.8,6.23.79,1.73,6.41,14.22.79,1.74,1.16,2.57Z"/>
                <path class="cls-16" d="m163.09,107.78h-11.61v-14.22h5.2l-.79-1.73h-4.41v-9.34c-.54-.92-1.11-1.83-1.74-2.69v12.03h-14.21v-14.22h12.48c-.51-.6-1.06-1.19-1.62-1.74h-10.86v-7.26c-.58-.24-1.16-.46-1.74-.66v7.92h-14.21v-10.31l-1.74-.15v10.45h-14.21v-11.62l-1.74.27v11.35h-14.21v-8.09c-.59.25-1.18.51-1.74.81v7.28h-9.64c-.51.56-1.01,1.15-1.48,1.74h11.12v14.22h-14.22v-9.58c-.43.77-.82,1.57-1.19,2.37l-.56,1.24v5.97h-2.68l-.79,1.73h3.47v14.22h-9.85l-.79,1.74h10.64v7.94l1.74,1.02v-8.96h14.22v14.21h-5.2l1.44.84v.9h3.76v14.21h-3.81v1.74s3.81,0,3.81,0v14.21h-3.88v1.74s3.88,0,3.88,0v10.22c.55.05,1.13.11,1.74.15v-10.37h14.21v11.01c.58.01,1.16.03,1.74.04v-11.05h14.21v11.14c.59,0,1.17-.01,1.74-.01v-11.12h14.21v10.79c.6-.03,1.18-.05,1.74-.08v-10.7h8.65l.07-1.74h-8.72v-14.21h9.34l.08-1.74h-9.42v-14.21h10.04l.08-1.74h-10.13v-14.21h14.21v11.67l1.74-1.03v-10.64h12.4l-.79-1.74Zm-77.18,0h-14.22v-14.22h14.22v14.22Zm15.96,47.87h-14.21v-14.21h14.21v14.21Zm0-15.96h-14.21v-14.21h14.21v14.21Zm0-15.96h-14.21v-14.21h14.21v14.21Zm0-15.96h-14.21v-14.22h14.21v14.22Zm0-15.96h-14.21v-14.22h14.21v14.22Zm15.96,63.83h-14.21v-14.21h14.21v14.21Zm0-15.96h-14.21v-14.21h14.21v14.21Zm0-15.96h-14.21v-14.21h14.21v14.21Zm0-15.96h-14.21v-14.22h14.21v14.22Zm0-15.96h-14.21v-14.22h14.21v14.22Zm15.96,63.83h-14.21v-14.21h14.21v14.21Zm0-15.96h-14.21v-14.21h14.21v14.21Zm0-15.96h-14.21v-14.21h14.21v14.21Zm0-15.96h-14.21v-14.22h14.21v14.22Zm0-15.96h-14.21v-14.22h14.21v14.22Zm15.96,15.96h-14.21v-14.22h14.21v14.22Z"/>
                <path class="cls-11" d="m128.14,66.52c-1.36,5.73-4.56,11.31-11.92,11.25-11.97-.1-15.51-9.22-16.45-12.93l3.91-.61,20.18,1.68,3.61.5c.22.03.45.06.67.11Z"/>
                <line class="cls-22" x1="143.25" y1="120.32" x2="141.72" y2="97.13"/>
                <path class="cls-1" d="m133.25,27.52s2.5,2.73.54,7.47c-1.96,4.74-2.95,8.76-3.13,13.24-.15,3.7-16.24,5.87-21.77,6.5-1.15.14-1.84.2-1.84.2l-4.38-8.6c-.58-1.52-1.97-4.4-3.19-7.73-2-5.4-3.53-11.98-.38-15.85,5.09-6.26,10.77-3.49,19.47-7.77,8.7-4.3,13.08-8.29,18.08-2.42,5.01,5.87-3.39,14.97-3.39,14.97Z"/>
                <path class="cls-12" d="m110.36,52.87l-1.47,1.86c-1.15.14-1.84.2-1.84.2l-4.38-8.6c-.58-1.52-1.97-4.4-3.19-7.73,4.32-1.76,7.31-6.28,7.31-6.28l3.57,20.56Z"/>
                <path class="cls-5" d="m123.85,65.91s.41,8.51-8.8,8.17c-9.2-.34-11.38-9.85-11.38-9.85l2.55-.54s.93-10.13,0-17.36l17.64,8.98c-.17.16-.33.35-.47.55-2.05,2.82-1.82,9.24-1.82,9.24l2.28.81Z"/>
                <path class="cls-15" d="m121.57,65.1c-11.35.33-14.52-12.94-14.52-12.94l16.34,3.7c-2.05,2.82-1.82,9.24-1.82,9.24Z"/>
                <path class="cls-5" d="m131.83,47.08c.03,1.65-.05,3.24-.27,4.72-.92,6.11-4.18,10.44-12.06,9.81-11.63-.93-13.74-12.36-13.74-12.36,0,0-2.99,2.5-5.9-.36-2.9-2.86-1.43-7.2,1.39-7.69,1.52-.26,3.01,1.28,4.08,2.76.45.65,1.47.32,1.47-.47v-11.18s14.16.59,22.56-2.5c.05-.02.09-.03.15-.05,1.34,1.24,1.84,2.89,1.99,4.7.2,2.52-.25,5.34.02,7.71.19,1.66.32,3.32.33,4.92Z"/>
                <path class="cls-21" d="m123.39,49.34l1.12-.66c.75-.44,1.06-1.37.71-2.17l-1.83-4.23"/>
                <path class="cls-2" d="m119.36,45.28c0,.56-.36,1.01-.8,1.01s-.8-.45-.8-1.01.36-1.01.8-1.01.8.45.8,1.01Z"/>
                <ellipse class="cls-2" cx="128.15" cy="44.8" rx=".8" ry="1.01"/>
                <path class="cls-21" d="m100.29,44.28c1.71-.97,3.79.67,3.38,3.12"/>
                <path class="cls-21" d="m119.57,53.9s2.24,2.28,5.23.49"/>
                <path class="cls-26" d="m114.65,40.92s1.66-2.51,4.98-1.4"/>
                <path class="cls-26" d="m130.65,39.65s-1.98-2.19-5.17-.18"/>
                <circle class="cls-14" cx="115.06" cy="49.34" r="2.82"/>
                <path class="cls-14" d="m131.83,47.08c.03,1.65-.05,3.24-.27,4.72-.41.22-.88.36-1.39.36-1.55,0-2.82-1.26-2.82-2.82s1.26-2.82,2.82-2.82c.62,0,1.2.2,1.66.56Z"/>
                <g>
                  <path class="cls-10" d="m137.83,141.91h-14.49c-1.74,0-2.86-1.41-2.51-3.15l6.14-30.26c.35-1.74,2.05-3.15,3.78-3.15h16.57c1.74,0,2.86,1.41,2.51,3.15l-8.22,30.26c-.35,1.74-2.05,3.15-3.78,3.15Z"/>
                  <path class="cls-19" d="m139.91,143.2h-14.49c-1.74,0-2.86-1.41-2.51-3.15l6.14-30.26c.35-1.74,2.05-3.15,3.78-3.15h14.49c1.74,0,2.86,1.41,2.51,3.15l-6.14,30.26c-.35,1.74-2.05,3.15-3.78,3.15Z"/>
                </g>
                <path class="cls-5" d="m136.38,137.09c0,2.99-3.58,5.63-3.58,5.63,0,0,.85,4.08-5.89,5.45-6.75,1.39-13.59-4.46-13.59-4.46l-43.56,9.19c-1.13.24-2.27.36-3.39.36-4.88,0-9.59-2.19-12.74-6.07-3.95-4.86-4.79-11.56-2.15-17.24l6.29-13.59,2.19-4.73,22.22,12.95-1.59,2.73-2.3,3.97,35.26-1.25s3.62-2.51,5.95-5.59c2.33-3.09,3.17-3.8,5.01-2.64,1.83,1.16-.18,6.44-1.74,8.45,5.63,3.13,12.39.71,15.11,1.11,2.73.41,2.77,3.62-1.47,5.73Z"/>
                <path class="cls-21" d="m136.37,137.09c-3.46,1.5-11.98.16-14.39-1.45"/>
                <path class="cls-21" d="m132.8,142.72c-4.78.94-10.15.63-12.87-2.1"/>
                <path class="cls-7" d="m131.25,119.84h0c-.9,0-1.49-.73-1.31-1.63l1.16-5.89c.18-.9,1.05-1.63,1.95-1.63h0c.9,0,1.49.73,1.31,1.63l-1.16,5.89c-.18.9-1.05,1.63-1.95,1.63Z"/>
                <line class="cls-21" x1="78.26" y1="131.28" x2="66.55" y2="131.28"/>
                <line class="cls-21" x1="147.86" y1="135.64" x2="154.08" y2="128.06"/>
                <line class="cls-22" x1="82.15" y1="124.57" x2="94.84" y2="100.17"/>
                <polygon class="cls-15" points="82.15 124.58 80.56 127.31 57.75 116.35 59.93 111.63 82.15 124.58"/>
                <line class="cls-22" x1="111.86" y1="220.86" x2="119.92" y2="194.58"/>
                <path class="cls-1" d="m35.51,338.73l25.45-14.74,4.83,6.84h11.13l1.21,10.33h-41.96c-1.33,0-1.8-1.76-.65-2.43Z"/>
                <g>
                  <rect class="cls-3" x="57.48" y="309.67" width="28.49" height="9.25" rx="2.81" ry="2.81" transform="translate(64.86 -8.01) rotate(11.63)"/>
                  <line class="cls-22" x1="61.02" y1="307.41" x2="84.29" y2="312.2"/>
                </g>
                <g>
                  <rect class="cls-3" x="131.65" y="309.75" width="28.49" height="9.25" rx="2.81" ry="2.81" transform="translate(-54.82 31.83) rotate(-10.49)"/>
                  <line class="cls-22" x1="133.38" y1="312.03" x2="156.74" y2="307.7"/>
                </g>
                <line class="cls-22" x1="88.5" y1="158.94" x2="139.55" y2="151.43"/>
                <polygon class="cls-6" points="119.3 197.8 116.47 240.66 111.97 221.35 112 220.37 119.3 197.8"/>
              </g>
              <g>
                <path class="cls-5" d="m316.96,69.53l-11.11,41.85c-1.77,6.67-8.73,10.54-15.33,8.53l-7.49-2.28,22.62-53.22,11.31,5.12Z"/>
                <path class="cls-15" d="m310.16,57.92c-.89-1.12-7.96,2.64-9.66,3.04-1.7.4-.18,4.64,2.95,4.22,3.13-.42,4.11-3.72,4.11-3.72l2.59-3.54Z"/>
                <path class="cls-10" d="m304.97,48.93l-.21,27.37,2.95-.63v-26.73c0-.59-.38-1.12-.95-1.3h0c-.88-.28-1.78.37-1.79,1.29Z"/>
                <path class="cls-5" d="m309.18,58.39s-9.03,9.05-7.29,11.67c1.74,2.61,7.31-2.15,8.38-3.62-.13,3.02,3.72,5.85,6.03,5.5,3.49-.54,4.89-4.09,3.82-5.7-1.07-1.61-7.58-5.36-7.58-5.36,0,0-1.65-4.89-3.37-2.48Z"/>
                <g>
                  <polyline class="cls-5" points="221.03 310.44 217.81 327.07 222.64 335.39 234.3 330.83 239 314.6"/>
                  <path class="cls-1" d="m192.9,338.73l25.45-14.74,4.83,6.84h11.13l1.21,10.33h-41.96c-1.33,0-1.8-1.76-.65-2.43Z"/>
                </g>
                <g>
                  <polyline class="cls-5" points="330.55 310.44 333.77 327.07 328.94 335.39 317.27 330.83 312.58 314.6"/>
                  <path class="cls-1" d="m358.68,338.73l-25.45-14.74-4.83,6.84h-11.13l-1.21,10.33h41.96c1.33,0,1.8-1.76.65-2.43Z"/>
                </g>
                <polygon class="cls-4" points="332.65 304.55 308.6 309.81 271.89 186.89 242.59 307.7 218.75 304.19 234.06 175.76 236.41 155.98 272.05 153.26 296 151.43 296.44 153.26 296.69 154.32 332.65 304.55"/>
                <polygon class="cls-9" points="296.69 154.32 234.06 175.76 236.41 155.98 272.05 153.26 296.44 153.26 296.69 154.32"/>
                <path class="cls-13" d="m298.3,150.46c.21,1.54-.86,2.97-2.42,3.2l-57.42,8.45c-1.95.28-3.69-1.27-3.61-3.25l1.65-45.03,1.21-32.8,8.77-19.15,1.82-3.96h20.14l2.2.29c.55.07,1.09.16,1.63.26,8.69,1.67,16.12,7.3,20.1,15.27l12.41,24.98-11.81,11.94,5.35,39.78Z"/>
                <path class="cls-13" d="m245.06,76c-.37.9-.53,1.87-.45,2.84l2.21,28.94-1.85,1.08-8.47,4.97-10.61,6.22-1.78,1.04-3.36-28.83c-1.47-12.65,5.36-24.8,16.92-30.12l7.16-3.3,3.48-1.6,2.49.67,1.47.4-2.85,6.96-4.37,10.72Z"/>
                <g class="cls-29">
                  <g>
                    <g>
                      <path class="cls-16" d="m225.63,149.79c0,1.15-.93,2.08-2.08,2.08s-2.08-.93-2.08-2.08.93-2.08,2.08-2.08,2.08.93,2.08,2.08Z"/>
                      <path class="cls-16" d="m237.94,149.79c0,1.15-.93,2.08-2.08,2.08s-2.08-.93-2.08-2.08.93-2.08,2.08-2.08,2.08.93,2.08,2.08Z"/>
                      <path class="cls-16" d="m250.24,149.79c0,1.15-.93,2.08-2.08,2.08s-2.08-.93-2.08-2.08.93-2.08,2.08-2.08,2.08.93,2.08,2.08Z"/>
                      <path class="cls-16" d="m262.55,149.79c0,1.15-.93,2.08-2.08,2.08s-2.08-.93-2.08-2.08.93-2.08,2.08-2.08,2.08.93,2.08,2.08Z"/>
                      <path class="cls-16" d="m274.86,149.79c0,1.15-.93,2.08-2.08,2.08s-2.08-.93-2.08-2.08.93-2.08,2.08-2.08,2.08.93,2.08,2.08Z"/>
                      <path class="cls-16" d="m287.16,149.79c0,1.15-.93,2.08-2.08,2.08s-2.08-.93-2.08-2.08.93-2.08,2.08-2.08,2.08.93,2.08,2.08Z"/>
                      <path class="cls-16" d="m299.47,149.79c0,1.15-.93,2.08-2.08,2.08s-2.08-.93-2.08-2.08.93-2.08,2.08-2.08,2.08.93,2.08,2.08Z"/>
                      <path class="cls-16" d="m311.77,149.79c0,1.15-.93,2.08-2.08,2.08s-2.08-.93-2.08-2.08.93-2.08,2.08-2.08,2.08.93,2.08,2.08Z"/>
                    </g>
                    <g>
                      <path class="cls-16" d="m225.63,138.3c0,1.15-.93,2.08-2.08,2.08s-2.08-.93-2.08-2.08.93-2.08,2.08-2.08,2.08.93,2.08,2.08Z"/>
                      <path class="cls-16" d="m237.94,138.3c0,1.15-.93,2.08-2.08,2.08s-2.08-.93-2.08-2.08.93-2.08,2.08-2.08,2.08.93,2.08,2.08Z"/>
                      <path class="cls-16" d="m250.24,138.3c0,1.15-.93,2.08-2.08,2.08s-2.08-.93-2.08-2.08.93-2.08,2.08-2.08,2.08.93,2.08,2.08Z"/>
                      <path class="cls-16" d="m262.55,138.3c0,1.15-.93,2.08-2.08,2.08s-2.08-.93-2.08-2.08.93-2.08,2.08-2.08,2.08.93,2.08,2.08Z"/>
                      <path class="cls-16" d="m274.86,138.3c0,1.15-.93,2.08-2.08,2.08s-2.08-.93-2.08-2.08.93-2.08,2.08-2.08,2.08.93,2.08,2.08Z"/>
                      <path class="cls-16" d="m287.16,138.3c0,1.15-.93,2.08-2.08,2.08s-2.08-.93-2.08-2.08.93-2.08,2.08-2.08,2.08.93,2.08,2.08Z"/>
                      <path class="cls-16" d="m299.47,138.3c0,1.15-.93,2.08-2.08,2.08s-2.08-.93-2.08-2.08.93-2.08,2.08-2.08,2.08.93,2.08,2.08Z"/>
                      <path class="cls-16" d="m311.77,138.3c0,1.15-.93,2.08-2.08,2.08s-2.08-.93-2.08-2.08.93-2.08,2.08-2.08,2.08.93,2.08,2.08Z"/>
                    </g>
                    <g>
                      <circle class="cls-16" cx="223.55" cy="126.82" r="2.08"/>
                      <path class="cls-16" d="m237.94,126.82c0,1.15-.93,2.08-2.08,2.08s-2.08-.93-2.08-2.08.93-2.08,2.08-2.08,2.08.93,2.08,2.08Z"/>
                      <path class="cls-16" d="m250.24,126.82c0,1.15-.93,2.08-2.08,2.08s-2.08-.93-2.08-2.08.93-2.08,2.08-2.08,2.08.93,2.08,2.08Z"/>
                      <path class="cls-16" d="m262.55,126.82c0,1.15-.93,2.08-2.08,2.08s-2.08-.93-2.08-2.08.93-2.08,2.08-2.08,2.08.93,2.08,2.08Z"/>
                      <path class="cls-16" d="m274.86,126.82c0,1.15-.93,2.08-2.08,2.08s-2.08-.93-2.08-2.08.93-2.08,2.08-2.08,2.08.93,2.08,2.08Z"/>
                      <circle class="cls-16" cx="285.08" cy="126.82" r="2.08"/>
                      <circle class="cls-16" cx="297.39" cy="126.82" r="2.08"/>
                      <circle class="cls-16" cx="309.7" cy="126.82" r="2.08"/>
                    </g>
                    <g>
                      <circle class="cls-16" cx="223.55" cy="115.34" r="2.08"/>
                      <path class="cls-16" d="m237.94,115.34c0,1.15-.93,2.08-2.08,2.08s-2.08-.93-2.08-2.08.93-2.08,2.08-2.08,2.08.93,2.08,2.08Z"/>
                      <path class="cls-16" d="m250.24,115.34c0,1.15-.93,2.08-2.08,2.08s-2.08-.93-2.08-2.08.93-2.08,2.08-2.08,2.08.93,2.08,2.08Z"/>
                      <path class="cls-16" d="m262.55,115.34c0,1.15-.93,2.08-2.08,2.08s-2.08-.93-2.08-2.08.93-2.08,2.08-2.08,2.08.93,2.08,2.08Z"/>
                      <path class="cls-16" d="m274.86,115.34c0,1.15-.93,2.08-2.08,2.08s-2.08-.93-2.08-2.08.93-2.08,2.08-2.08,2.08.93,2.08,2.08Z"/>
                      <circle class="cls-16" cx="285.08" cy="115.34" r="2.08"/>
                      <circle class="cls-16" cx="297.39" cy="115.34" r="2.08"/>
                      <circle class="cls-16" cx="309.7" cy="115.34" r="2.08"/>
                    </g>
                    <g>
                      <path class="cls-16" d="m225.63,103.85c0,1.15-.93,2.08-2.08,2.08s-2.08-.93-2.08-2.08.93-2.08,2.08-2.08,2.08.93,2.08,2.08Z"/>
                      <path class="cls-16" d="m237.94,103.85c0,1.15-.93,2.08-2.08,2.08s-2.08-.93-2.08-2.08.93-2.08,2.08-2.08,2.08.93,2.08,2.08Z"/>
                      <path class="cls-16" d="m250.24,103.85c0,1.15-.93,2.08-2.08,2.08s-2.08-.93-2.08-2.08.93-2.08,2.08-2.08,2.08.93,2.08,2.08Z"/>
                      <path class="cls-16" d="m262.55,103.85c0,1.15-.93,2.08-2.08,2.08s-2.08-.93-2.08-2.08.93-2.08,2.08-2.08,2.08.93,2.08,2.08Z"/>
                      <path class="cls-16" d="m274.86,103.85c0,1.15-.93,2.08-2.08,2.08s-2.08-.93-2.08-2.08.93-2.08,2.08-2.08,2.08.93,2.08,2.08Z"/>
                      <path class="cls-16" d="m287.16,103.85c0,1.15-.93,2.08-2.08,2.08s-2.08-.93-2.08-2.08.93-2.08,2.08-2.08,2.08.93,2.08,2.08Z"/>
                      <path class="cls-16" d="m299.47,103.85c0,1.15-.93,2.08-2.08,2.08s-2.08-.93-2.08-2.08.93-2.08,2.08-2.08,2.08.93,2.08,2.08Z"/>
                      <path class="cls-16" d="m311.77,103.85c0,1.15-.93,2.08-2.08,2.08s-2.08-.93-2.08-2.08.93-2.08,2.08-2.08,2.08.93,2.08,2.08Z"/>
                    </g>
                    <g>
                      <path class="cls-16" d="m225.63,92.37c0,1.15-.93,2.08-2.08,2.08s-2.08-.93-2.08-2.08.93-2.08,2.08-2.08,2.08.93,2.08,2.08Z"/>
                      <path class="cls-16" d="m237.94,92.37c0,1.15-.93,2.08-2.08,2.08s-2.08-.93-2.08-2.08.93-2.08,2.08-2.08,2.08.93,2.08,2.08Z"/>
                      <path class="cls-16" d="m250.24,92.37c0,1.15-.93,2.08-2.08,2.08s-2.08-.93-2.08-2.08.93-2.08,2.08-2.08,2.08.93,2.08,2.08Z"/>
                      <path class="cls-16" d="m262.55,92.37c0,1.15-.93,2.08-2.08,2.08s-2.08-.93-2.08-2.08.93-2.08,2.08-2.08,2.08.93,2.08,2.08Z"/>
                      <path class="cls-16" d="m274.86,92.37c0,1.15-.93,2.08-2.08,2.08s-2.08-.93-2.08-2.08.93-2.08,2.08-2.08,2.08.93,2.08,2.08Z"/>
                      <path class="cls-16" d="m287.16,92.37c0,1.15-.93,2.08-2.08,2.08s-2.08-.93-2.08-2.08.93-2.08,2.08-2.08,2.08.93,2.08,2.08Z"/>
                      <path class="cls-16" d="m299.47,92.37c0,1.15-.93,2.08-2.08,2.08s-2.08-.93-2.08-2.08.93-2.08,2.08-2.08,2.08.93,2.08,2.08Z"/>
                      <path class="cls-16" d="m311.77,92.37c0,1.15-.93,2.08-2.08,2.08s-2.08-.93-2.08-2.08.93-2.08,2.08-2.08,2.08.93,2.08,2.08Z"/>
                    </g>
                    <g>
                      <circle class="cls-16" cx="223.55" cy="80.89" r="2.08"/>
                      <path class="cls-16" d="m237.94,80.89c0,1.15-.93,2.08-2.08,2.08s-2.08-.93-2.08-2.08.93-2.08,2.08-2.08,2.08.93,2.08,2.08Z"/>
                      <path class="cls-16" d="m250.24,80.89c0,1.15-.93,2.08-2.08,2.08s-2.08-.93-2.08-2.08.93-2.08,2.08-2.08,2.08.93,2.08,2.08Z"/>
                      <path class="cls-16" d="m262.55,80.89c0,1.15-.93,2.08-2.08,2.08s-2.08-.93-2.08-2.08.93-2.08,2.08-2.08,2.08.93,2.08,2.08Z"/>
                      <path class="cls-16" d="m274.86,80.89c0,1.15-.93,2.08-2.08,2.08s-2.08-.93-2.08-2.08.93-2.08,2.08-2.08,2.08.93,2.08,2.08Z"/>
                      <circle class="cls-16" cx="285.08" cy="80.89" r="2.08"/>
                      <circle class="cls-16" cx="297.39" cy="80.89" r="2.08"/>
                      <circle class="cls-16" cx="309.7" cy="80.89" r="2.08"/>
                    </g>
                    <g>
                      <circle class="cls-16" cx="223.55" cy="69.4" r="2.08"/>
                      <path class="cls-16" d="m237.94,69.4c0,1.15-.93,2.08-2.08,2.08s-2.08-.93-2.08-2.08.93-2.08,2.08-2.08,2.08.93,2.08,2.08Z"/>
                      <path class="cls-16" d="m250.24,69.4c0,1.15-.93,2.08-2.08,2.08s-2.08-.93-2.08-2.08.93-2.08,2.08-2.08,2.08.93,2.08,2.08Z"/>
                      <path class="cls-16" d="m262.55,69.4c0,1.15-.93,2.08-2.08,2.08s-2.08-.93-2.08-2.08.93-2.08,2.08-2.08,2.08.93,2.08,2.08Z"/>
                      <path class="cls-16" d="m274.86,69.4c0,1.15-.93,2.08-2.08,2.08s-2.08-.93-2.08-2.08.93-2.08,2.08-2.08,2.08.93,2.08,2.08Z"/>
                      <circle class="cls-16" cx="285.08" cy="69.4" r="2.08"/>
                      <circle class="cls-16" cx="297.39" cy="69.4" r="2.08"/>
                      <circle class="cls-16" cx="309.7" cy="69.4" r="2.08"/>
                    </g>
                    <g>
                      <path class="cls-16" d="m225.63,57.92c0,1.15-.93,2.08-2.08,2.08s-2.08-.93-2.08-2.08.93-2.08,2.08-2.08,2.08.93,2.08,2.08Z"/>
                      <path class="cls-16" d="m237.94,57.92c0,1.15-.93,2.08-2.08,2.08s-2.08-.93-2.08-2.08.93-2.08,2.08-2.08,2.08.93,2.08,2.08Z"/>
                      <path class="cls-16" d="m250.24,57.92c0,1.15-.93,2.08-2.08,2.08s-2.08-.93-2.08-2.08.93-2.08,2.08-2.08,2.08.93,2.08,2.08Z"/>
                      <path class="cls-16" d="m262.55,57.92c0,1.15-.93,2.08-2.08,2.08s-2.08-.93-2.08-2.08.93-2.08,2.08-2.08,2.08.93,2.08,2.08Z"/>
                      <path class="cls-16" d="m274.86,57.92c0,1.15-.93,2.08-2.08,2.08s-2.08-.93-2.08-2.08.93-2.08,2.08-2.08,2.08.93,2.08,2.08Z"/>
                      <path class="cls-16" d="m287.16,57.92c0,1.15-.93,2.08-2.08,2.08s-2.08-.93-2.08-2.08.93-2.08,2.08-2.08,2.08.93,2.08,2.08Z"/>
                      <path class="cls-16" d="m299.47,57.92c0,1.15-.93,2.08-2.08,2.08s-2.08-.93-2.08-2.08.93-2.08,2.08-2.08,2.08.93,2.08,2.08Z"/>
                      <path class="cls-16" d="m311.77,57.92c0,1.15-.93,2.08-2.08,2.08s-2.08-.93-2.08-2.08.93-2.08,2.08-2.08,2.08.93,2.08,2.08Z"/>
                    </g>
                  </g>
                </g>
                <path class="cls-10" d="m275.88,104.6l12.26-27.06c.47-1.04,1.38-1.82,2.48-2.12l49.86-13.68c.84-.23,2.57,1.85,2.18,2.64l-18.14,33.68c-.58,1.18-1.59,2.1-2.82,2.57l-46.89,17.78,1.07-13.81Z"/>
                <path class="cls-19" d="m276.77,106.6l12.26-27.06c.47-1.04,1.38-1.82,2.48-2.12l49.86-13.68c.84-.23,1.57.64,1.18,1.43l-17.14,34.89c-.58,1.18-1.59,2.1-2.82,2.57l-46.89,17.78,1.07-13.81Z"/>
                <path class="cls-5" d="m288.88,112.97s1.01,2.35-3.95,6.91c-4.97,4.56-12.48,1.61-12.48,1.61l-19.93,15.12c-2.82,2.11-6.19,3.19-9.57,3.19-2.52,0-5.04-.59-7.36-1.8-4.26-2.22-7.3-6.24-8.27-10.95l-.14-.68-1.3-6.32,10.61-6.22,8.47-4.97.28,1.58,1.32,7.3,21.66-10.6s4.36-6.98,6.44-9.45c2.08-2.48,4.42-2.88,5.16-1.27.75,1.61-3.95,8.18-3.95,8.18,0,0,1.74-.14,6.98-1.95,5.23-1.81,8.65-5.56,10.05-4.42,1.41,1.15.61,4.42-1.27,6.98.47,4.5-2.75,7.77-2.75,7.77Z"/>
                <polygon class="cls-15" points="245.25 110.44 227.19 126.37 225.89 120.05 236.5 113.83 244.96 108.86 245.25 110.44"/>
                <path class="cls-11" d="m272.25,58.48c-.83,4.7-3.48,9.44-10.59,10.21-5.62.62-9.54-1.08-12.24-3.4-1.22-1.06-2.2-2.25-2.95-3.4-.71-1.07-1.25-2.12-1.64-3.04l3.48-1.6,2.49.67h17.63l2.2.29c.55.07,1.09.16,1.63.26Z"/>
                <path class="cls-5" d="m262.2,65.5c-9.86,1.1-13.89-8.25-13.89-8.25l2.02-.87s.34-7.85-.4-12.41l2.82.72,13.88,3.57c-1.28,3-.95,7.21-.79,8.55.03.27.05.43.05.43l2.54.67s.41,6.84-6.23,7.57Z"/>
                <path class="cls-15" d="m265.84,56.82c-5.56.13-12.62-1.81-14.78-9.07-.49-1.65.24-2.59,1.69-3.06l13.88,3.57c-1.28,3-.95,7.21-.79,8.55Z"/>
                <path class="cls-1" d="m247.58,39.02l-5.05-6.2c-2.61-3.21-2.34-7.88.62-10.76h0c-2.73-6.53,1.13-13.94,8.04-15.46l5.15-1.13c.92-.2,1.78-.59,2.54-1.15l4.95-3.61c1.2-.87,2.81-.93,4.06-.15h0c1.62,1.01,2.19,3.1,1.3,4.79l-1.52,2.87c-.18.34.21.7.53.5l8.95-5.59c1.15-.72,2.66-.51,3.57.5h0c.88.98.97,2.44.2,3.51l-6.17,8.65c-.21.3.09.7.43.58l1.51-.54c1.55-.55,3.27.06,4.12,1.46h0c.82,1.34.65,3.05-.43,4.2-2.95,3.14-8.49,9.42-9.23,12.98-1.01,4.89-23.6,4.56-23.6,4.56Z"/>
                <path class="cls-5" d="m271.91,29.33c-.17.96-.33,2.41-.33,4.52,0,1.39.27,3.69.3,6.2.02,1.75-.07,3.62-.45,5.38-.88,4.08-3.31,7.54-9.43,7.54-12.54,0-13.81-12.41-13.81-12.41,0,0-.34,2.98-3.15,1.58-2.1-1.05-2.82-5.84-.44-6.98,1.4-.67,2.89.24,3.89,1.1.42.36,1.06.02,1.01-.53l-.5-5.85c3.42,1.04,15.69-2.45,20.52-7.21.08,1.28.97,2.74,1.72,3.76.61.83.86,1.87.68,2.89Z"/>
                <g>
                  <path class="cls-21" d="m263.05,42.99l1.12-.66c.75-.44,1.06-1.37.71-2.17l-1.83-4.23"/>
                  <path class="cls-2" d="m259.02,37.92c0,.56-.36,1.01-.8,1.01s-.8-.45-.8-1.01.36-1.01.8-1.01.8.45.8,1.01Z"/>
                  <path class="cls-2" d="m268.61,37.35c0,.56-.36,1.01-.8,1.01s-.8-.45-.8-1.01.36-1.01.8-1.01.8.45.8,1.01Z"/>
                  <path class="cls-26" d="m254.31,34.56s1.66-2.51,4.98-1.4"/>
                  <path class="cls-26" d="m270.31,33.29s-1.98-2.19-5.17-.18"/>
                </g>
                <path class="cls-11" d="m259.29,45.41l4.75.22s-.16,2.46-2.55,2.3c-2.39-.16-2.19-2.53-2.19-2.53Z"/>
                <path class="cls-21" d="m244.36,37.51c1.41-.87,2.68.23,2.41,2.35"/>
                <g>
                  <path class="cls-14" d="m258.58,42.67c0,1.56-1.26,2.82-2.82,2.82s-2.82-1.26-2.82-2.82,1.26-2.82,2.82-2.82,2.82,1.26,2.82,2.82Z"/>
                  <path class="cls-14" d="m271.89,40.05c.02,1.75-.07,3.62-.45,5.38-.18.04-.37.06-.56.06-1.55,0-2.82-1.26-2.82-2.82s1.26-2.82,2.82-2.82c.36,0,.69.06,1.01.19Z"/>
                </g>
                <line class="cls-21" x1="246.57" y1="117.73" x2="238.6" y2="121.76"/>
                <path class="cls-21" d="m291.63,105.2c-1.74,3.49-11.35,4.84-11.35,4.84"/>
                <path class="cls-21" d="m288.88,112.97c-3.89,4.16-10.33,3.15-10.33,3.15"/>
                <line class="cls-22" x1="244.96" y1="108.87" x2="241.64" y2="84.71"/>
                <line class="cls-22" x1="285.96" y1="128.06" x2="261.66" y2="148.54"/>
                <g>
                  <rect class="cls-4" x="215.74" y="305.18" width="28.49" height="9.25" rx="2.81" ry="2.81" transform="translate(41.56 -26.9) rotate(7.36)"/>
                  <line class="cls-22" x1="218.8" y1="303.74" x2="242.36" y2="306.78"/>
                </g>
                <g>
                  <rect class="cls-4" x="307.65" y="305.26" width="28.49" height="9.25" rx="2.81" ry="2.81" transform="translate(-73.94 102.61) rotate(-16.27)"/>
                  <line class="cls-22" x1="309.21" y1="308.82" x2="332.02" y2="302.16"/>
                </g>
                <g>
                  <path class="cls-16" d="m291.82,81.48c1.33-.98,3.01-.96,3.75.04.74,1.01.27,2.62-1.06,3.6-1.33.98-3.01.96-3.75-.04-.74-1.01-.27-2.62,1.06-3.6Z"/>
                  <path class="cls-16" d="m292.48,82.36c.68-.5,1.55-.5,1.93.02.38.52.14,1.34-.54,1.85-.68.5-1.55.5-1.93-.02-.38-.52-.14-1.34.54-1.85Z"/>
                </g>
                <line class="cls-22" x1="273.81" y1="175.74" x2="267.47" y2="205.1"/>
              </g>
              <path class="cls-19" d="m359.21,95.5h-.66c.23-.06.45-.05.66,0Z"/>
              <path class="cls-19" d="m358.55,95.5s-.03,0-.04.01h0s.04-.01.04-.01Z"/>
              <g>
                <g>
                  <polyline class="cls-5" points="408.41 281.46 406.81 327.54 411.63 335.86 423.3 331.3 426.38 285.62"/>
                  <path class="cls-13" d="m381.89,339.2l25.45-14.74,4.83,6.84h11.13l1.21,10.33h-41.96c-1.33,0-1.8-1.76-.65-2.43Z"/>
                </g>
                <g>
                  <polyline class="cls-5" points="486.24 281.46 500.9 327.54 496.08 335.86 484.41 331.3 468.27 285.62"/>
                  <path class="cls-13" d="m525.82,339.2l-25.45-14.74-4.83,6.84h-11.13l-1.21,10.33h41.96c1.33,0,1.8-1.76.65-2.43Z"/>
                </g>
                <path class="cls-18" d="m409.85,129.8l-6.03,173.93,23.87,1.75,9.12-108.76,35.94,112.09,21.19-6.66s-28.7-118.31-31.92-135.21c-3.22-16.9-1.61-25.75-6.71-37.55l-45.46.4Z"/>
                <path class="cls-1" d="m428.93,13c-6.88-1.88-12.11,8.18-10.5,20.65,1.61,12.47-9.12,24.41-7.91,29.5,1.21,5.1,25.08,12.2,41.04,12.07,15.96-.13,20.92-7.11,17.97-12.07-2.95-4.96-7.64-9.79-7.24-24.74.4-14.95-9.98-42.84-33.35-25.41Z"/>
                <path class="cls-5" d="m396.03,84.21l-8.85,19.85-13.68-32.09s-1.74-10.96-3.15-14.04c-1.41-3.08-.94-7.18-2.82-7.78-1.88-.6-2.55,2.75-2.55,5.63s-.47,5.63-.47,5.63c0,0-7.85-6.84-8.31-8.99-.47-2.15-.2-9.45-1.94-10.39s-3.69,1.21-4.09,7.44c-.4,6.24,12.14,24.41,12.14,24.41l9.19,44.52,25.75,4.69,15.29-25.08-16.49-13.81Z"/>
                <path class="cls-4" d="m474.89,90.06l-9.48,6.88-.89.64-7.07,5.14-1.07,28.03-4.32-.08-.89-.02-12.46-.25h-.89s-12.46-.26-12.46-.26l-.89-.02-12.46-.25-.89-.02-1.27-.02s.54-6.85-1.47-16.84c-2.02-9.99.8-16.86.8-16.86l-13.14-11.9,6.73-10.46c2.06-3.2,4.96-5.77,8.35-7.41.29-.15.59-.28.89-.41.98-.43,2-.78,3.04-1.04l9.42-2.42.51-.14.38-.09,3.19-.83,9.27.03h.89l10.1.03,2.36,1.24.89.47h.02s8.49,4.45,8.49,4.45c1.43.75,2.75,1.65,3.95,2.7.3.25.61.53.89.81,2.07,2.01,3.72,4.45,4.8,7.19l4.67,11.72Z"/>
                <g>
                  <path class="cls-16" d="m412.01,65.93v63.92l-.89-.02v-63.49c.29-.15.59-.28.89-.41Z"/>
                  <polygon class="cls-16" points="425.36 62.24 425.36 130.12 424.47 130.1 424.47 62.47 424.98 62.34 425.36 62.24"/>
                  <polygon class="cls-16" points="438.71 61.44 438.71 130.39 437.82 130.38 437.82 61.44 438.71 61.44"/>
                  <polygon class="cls-16" points="452.07 63.19 452.07 130.66 451.17 130.64 451.17 62.71 452.07 63.19"/>
                  <path class="cls-16" d="m465.42,71.15v25.79l-.89.64v-27.24c.3.25.61.53.89.81Z"/>
                </g>
                <path class="cls-11" d="m452.09,63.2c-2.77,5.65-10.07,8.95-19.03,8.36-7.52-.5-8.45-5.52-8.07-9.22l3.57-.92,20.25.06,3.28,1.72Z"/>
                <path class="cls-5" d="m448.81,61.48s-3.7,7.37-13.15,7.37-7.1-7.44-7.1-7.44l2.68-.87-.16-4.61-.24-6.72,16.09-4.9c-.34.67-.58,1.64-.74,2.75-.75,5.08.06,13.48.06,13.48l2.55.93Z"/>
                <path class="cls-15" d="m446.93,44.31c-.34.67-.58,1.64-.74,2.75,0,.01-.01.01-.01.02-4.52,9.09-12.12,9.19-15.11,8.85l-.24-6.72,16.09-4.9Z"/>
                <path class="cls-5" d="m429.25,20.12c1.48,7.92,18.41,13.39,19.61,14.3.7.53.93,1.79,1,2.74.01.2.29.24.36.05.43-1.17,1.28-2.84,2.72-3.01,2.24-.27,4.4,2.56,3.12,5.95-1.28,3.39-6.39,1.59-6.39,1.59,0,0-4.17,10.15-13.75,10.43-9.58.28-11.7-7.84-10.97-12.83.73-4.99.65-7.47.23-10.4s3.25-5.01,4.06-8.82Z"/>
                <path class="cls-21" d="m453.7,36.14c-.8.23-1.7,2.43-1.34,3.45"/>
                <g>
                  <path class="cls-21" d="m434.49,42.47l-1.12-.66c-.75-.44-1.06-1.37-.71-2.17l1.83-4.23"/>
                  <path class="cls-2" d="m438.52,37.4c0,.56.36,1.01.8,1.01s.8-.45.8-1.01-.36-1.01-.8-1.01-.8.45-.8,1.01Z"/>
                  <path class="cls-2" d="m428.93,36.83c0,.56.36,1.01.8,1.01s.8-.45.8-1.01-.36-1.01-.8-1.01-.8.45-.8,1.01Z"/>
                  <path class="cls-26" d="m442.7,31.98s-2.02-2.23-5.13-.64"/>
                  <path class="cls-26" d="m427.14,31.88s1.98-2.19,5.17-.18"/>
                </g>
                <path class="cls-20" d="m432.39,37.09c0,2.26-1.83,4.09-4.09,4.09s-4.09-1.83-4.09-4.09,1.83-4.09,4.09-4.09,4.09,1.83,4.09,4.09Z"/>
                <path class="cls-20" d="m443.75,37.09c0,2.26-1.83,4.09-4.09,4.09s-4.09-1.83-4.09-4.09,1.83-4.09,4.09-4.09,4.09,1.83,4.09,4.09Z"/>
                <path class="cls-20" d="m432.28,36.14s1.73-1.67,3.4,0"/>
                <path class="cls-21" d="m435.67,46.12s2.61,1.07,4.75-.76"/>
                <path class="cls-3" d="m406.69,129.4h-39.73c-.66.01-1.26-.39-1.45-1.05l-8.52-30.92c-.21-.78.24-1.58,1.02-1.79l.49-.14h.01s.03-.01.04-.01h39.74l8.39,33.9Z"/>
                <path class="cls-17" d="m383.01,113.97c0,1.7-1.38,3.08-3.08,3.08s-3.08-1.38-3.08-3.08,1.38-3.08,3.08-3.08,3.08,1.38,3.08,3.08Z"/>
                <g>
                  <rect class="cls-6" x="405.24" y="125.98" width="34.42" height="3.42" rx="1.44" ry="1.44"/>
                  <rect class="cls-6" x="385.4" y="110.46" width="34.42" height="3.42" rx="1.44" ry="1.44" transform="translate(403.76 -305.77) rotate(74.59)"/>
                </g>
                <path class="cls-5" d="m489.22,138.26c0,3.88-1.7,7.63-4.79,10.18-4.54,3.74-11,4.01-15.84.68l-22.09-15.2s-12.02,2.64-17.43,2.14-11.18-3.35-11.22-4.46c-.05-1.12,21.77-3.4,20.74-4.3-1.03-.89-10.77-.98-10.9-3.08s2.32-2.82,6.39-3.09c4.08-.27,9.25,1.79,9.25,1.79l22.11,3.07-6.28-18.32-1.7-4.95,17.44-12.66,1.13,3.68,12.61,40.63c.4,1.28.59,2.59.59,3.89Z"/>
                <polygon class="cls-15" points="474.89 90.06 476.03 93.74 459.16 107.67 457.46 102.72 474.89 90.06"/>
                <line class="cls-21" x1="465.43" y1="125.98" x2="474.89" y2="127.26"/>
                <path class="cls-1" d="m413.05,127.69c0,.29-.23.52-.52.52s-.52-.23-.52-.52.23-.52.52-.52.52.23.52.52Z"/>
                <path class="cls-1" d="m415.16,127.69c0,.29-.23.52-.52.52s-.52-.23-.52-.52.23-.52.52-.52.52.23.52.52Z"/>
                <rect class="cls-3" x="401.44" y="302.16" width="28.49" height="9.25" rx="2.81" ry="2.81" transform="translate(10.62 -13.88) rotate(1.94)"/>
                <rect class="cls-3" x="469.14" y="300.86" width="28.49" height="9.25" rx="2.81" ry="2.81" transform="translate(-67.34 151.58) rotate(-16.68)"/>
                <line class="cls-22" x1="429.92" y1="174.01" x2="440.99" y2="209.78"/>
                <path class="cls-22" d="m412.01,112.17c5.88,5.43,16.29,6.24,16.29,6.24"/>
                <line class="cls-22" x1="457.46" y1="102.72" x2="449.95" y2="90.06"/>
                <path class="cls-22" d="m409.18,96.11c3.22-6.4,3.87-14.72,3.87-14.72"/>
              </g>
            </g>
            <line class="cls-24" x1="21.19" y1="341.62" x2="546.35" y2="341.62"/>
          </g>
        </g>
        <g>
          <g>
            <polygon class="cls-11" points="397.75 0 397.75 42.22 387.14 31.61 346.48 31.61 346.48 0 397.75 0"/>
            <g>
              <line class="cls-23" x1="360.3" y1="8.56" x2="383.92" y2="8.56"/>
              <line class="cls-27" x1="364.21" y1="13.41" x2="383.92" y2="13.41"/>
              <line class="cls-27" x1="360.3" y1="18.26" x2="383.92" y2="18.26"/>
              <line class="cls-27" x1="367.36" y1="23.11" x2="383.92" y2="23.11"/>
            </g>
          </g>
          <g>
            <polygon class="cls-11" points="160.67 24.53 160.67 66.74 171.28 56.14 211.94 56.14 211.94 24.53 160.67 24.53"/>
            <g>
              <line class="cls-25" x1="198.11" y1="33.09" x2="174.5" y2="33.09"/>
              <line class="cls-27" x1="194.2" y1="37.94" x2="174.5" y2="37.94"/>
              <line class="cls-27" x1="198.11" y1="42.79" x2="174.5" y2="42.79"/>
              <line class="cls-27" x1="191.06" y1="47.64" x2="174.5" y2="47.64"/>
            </g>
          </g>
        </g>
      </g>
    </g>
  </g>
</svg>